<svg
   width="16"
   height="16"
   viewBox="0 0 16 16"
   xmlns="http://www.w3.org/2000/svg">
  <path
     fill-rule="evenodd"
     clip-rule="evenodd"
     fill="#e0e0e0"
     stroke="#e0e0e0"
     stroke-width="0.427389"
     stroke-miterlimit="11.4737"
     d="M 7.9404366,0.27821363 C 3.8807188,3.9318183 0.20272717,15.806034 3.8807188,15.806034 c 1.0149294,0 1.1897228,-0.997637 4.0597178,-0.913401 2.8699384,0.08423 3.0447884,0.913401 4.0597174,0.913401 4.059718,0 0,-11.8742157 -4.0597174,-15.52782037 z"
     id="path29-5" />
  <path
     fill-rule="evenodd"
     clip-rule="evenodd"
     fill="#e0e0e0"
     stroke="#e0e0e0"
     d="M 3.8886127,6.6791769 C 3.5316958,7.2272176 0.90472005,8.7764475 0.83593038,9.3574721 0.76714072,9.9384967 2.1310931,11.100039 1.9850561,11.516651 1.8384552,11.933263 1.0186177,12.455983 1.2340083,12.810129 1.3394482,12.989257 2.3865171,12.675148 2.4519236,11.936816 2.4964678,11.418207 2.5573635,11.308599 2.236533,10.80775 1.8063157,10.131833 1.5587857,9.7116688 1.3760984,9.4193804 1.7008758,9.196612 3.5316958,7.3261694 3.1702681,8.7764475 Z"
     id="path45-5"
     style="stroke-width:0.0534904" />
  <path
     fill-rule="evenodd"
     clip-rule="evenodd"
     fill="#e0e0e0"
     stroke="#e0e0e0"
     d="m 12.117999,6.6867378 c 0.356917,0.5480407 2.983893,2.0972706 3.052682,2.6777878 0.06935,0.5810246 -1.295162,1.7431244 -1.148562,2.1597374 0.146094,0.416105 0.965875,0.938773 0.751048,1.292919 -0.106003,0.179128 -1.153072,-0.13493 -1.217915,-0.872755 -0.04516,-0.519116 -0.106004,-0.628775 0.214827,-1.129065 C 14.200296,10.139445 14.44839,9.7192297 14.631134,9.4269921 14.3063,9.2042237 12.474972,7.3332736 12.8364,8.7840591 Z"
     id="path47-4"
     style="stroke-width:0.0534904" />
</svg>
