<?xml version="1.0" encoding="UTF-8" standalone="no"?>
<svg
   version="1.1"
   id="Layer_1"
   width="16"
   height="16"
   viewBox="0 0 160 320"
   xmlns:xlink="http://www.w3.org/1999/xlink"
   xmlns="http://www.w3.org/2000/svg"
   xmlns:svg="http://www.w3.org/2000/svg">
  <defs
     id="defs17" />
  <g
     id="g49"
     transform="translate(-225,-238.99922)">
    <path
       fill-rule="evenodd"
       clip-rule="evenodd"
       fill="#e0e0e0"
       stroke="#e0e0e0"
       stroke-width="7.99"
       stroke-miterlimit="11.4737"
       d="m 304.045,244.649 c -72,72 -137.23,306 -72,306 18,0 21.1,-19.66 72,-18 50.899,1.66 54,18 72,18 72,0 0,-234 -72,-306 z"
       id="path29" />
    <path
       fill-rule="evenodd"
       clip-rule="evenodd"
       fill="#e0e0e0"
       stroke="#e0e0e0"
       d="m 304.544,245.439 c -35.279,35.64 -52.049,78.19 -64.289,107.21 28.079,-18.14 100.939,-18.43 129.24,-0.36 -12.53,-26.999 -29.671,-70.92 -64.951,-106.85 z"
       id="path31" />
    <g
       id="g41">
      <defs
         id="defs34">
        <path
           id="SVGID_1_"
           d="m 306.345,399.81 c 23.479,0 42.7,-19.22 42.7,-42.7 0,-23.47 -19.221,-42.69 -42.7,-42.69 -23.471,0 -42.69,19.22 -42.69,42.69 -10e-4,23.479 19.219,42.7 42.69,42.7 z" />
      </defs>
      <clipPath
         id="SVGID_2_">
        <use
           xlink:href="#SVGID_1_"
           overflow="visible"
           id="use36" />
      </clipPath>
      <path
         clip-path="url(#SVGID_2_)"
         fill="#e0e0e0"
         d="m 289.087,339.183 h 85.07 c 0,-47.328 -38.411,-85.739 -85.739,-85.739 -47.328,0 -85.74,38.411 -85.74,85.739 0,47.328 38.412,85.739 85.74,85.739 47.328,0 85.739,-38.411 85.739,-85.739"
         id="path39" />
    </g>
    <path
       fill="none"
       stroke="#e0e0e0"
       stroke-width="7.99"
       stroke-miterlimit="11.4737"
       d="m 306.345,399.81 c 23.479,0 42.7,-19.22 42.7,-42.7 0,-23.47 -19.221,-42.69 -42.7,-42.69 -23.471,0 -42.69,19.22 -42.69,42.69 -10e-4,23.479 19.219,42.7 42.69,42.7 z"
       id="path43" />
    <path
       fill-rule="evenodd"
       clip-rule="evenodd"
       fill="#e0e0e0"
       stroke="#e0e0e0"
       d="m 232.185,370.79 c -6.33,10.8 -52.92,41.33 -54.14,52.78 -1.22,11.45 22.97,34.34 20.38,42.55 -2.6,8.21 -17.14,18.511 -13.32,25.49 1.87,3.53 20.44,-2.66 21.6,-17.21 0.79,-10.22 1.87,-12.38 -3.82,-22.25 -7.63,-13.32 -12.02,-21.6 -15.26,-27.36 5.76,-4.39 38.23,-41.25 31.82,-12.67 z"
       id="path45" />
    <path
       fill-rule="evenodd"
       clip-rule="evenodd"
       fill="#e0e0e0"
       stroke="#e0e0e0"
       d="m 378.135,370.939 c 6.33,10.8 52.92,41.33 54.14,52.77 1.23,11.45 -22.97,34.351 -20.37,42.561 2.591,8.2 17.13,18.5 13.32,25.479 -1.88,3.53 -20.45,-2.659 -21.6,-17.199 -0.801,-10.23 -1.88,-12.391 3.81,-22.25 7.63,-13.32 12.03,-21.601 15.271,-27.36 -5.761,-4.39 -38.24,-41.26 -31.83,-12.67 z"
       id="path47" />
  </g>
</svg>
