<?xml version="1.0" encoding="UTF-8" standalone="no"?>
<svg
        xmlns:dc="http://purl.org/dc/elements/1.1/"
        xmlns:cc="http://creativecommons.org/ns#"
        xmlns:rdf="http://www.w3.org/1999/02/22-rdf-syntax-ns#"
        xmlns="http://www.w3.org/2000/svg"
        xmlns:sodipodi="http://sodipodi.sourceforge.net/DTD/sodipodi-0.dtd"
        xmlns:inkscape="http://www.inkscape.org/namespaces/inkscape"
        height="16"
        viewBox="0 0 16 16"
        width="16"
        version="1.1"
        id="svg4"
        sodipodi:docname="icon_signals.svg"
        inkscape:version="1.0.1 (3bc2e813f5, 2020-09-07)">
  <metadata
          id="metadata10">
    <rdf:RDF>
      <cc:Work
              rdf:about="">
        <dc:format>image/svg+xml</dc:format>
        <dc:type
                rdf:resource="http://purl.org/dc/dcmitype/StillImage"/>
        <dc:title></dc:title>
      </cc:Work>
    </rdf:RDF>
  </metadata>
  <defs
          id="defs8"/>
  <sodipodi:namedview
          pagecolor="#ffffff"
          bordercolor="#666666"
          borderopacity="1"
          objecttolerance="10"
          gridtolerance="10"
          guidetolerance="10"
          inkscape:pageopacity="0"
          inkscape:pageshadow="2"
          inkscape:window-width="2560"
          inkscape:window-height="1440"
          id="namedview6"
          showgrid="false"
          showborder="false"
          inkscape:zoom="52"
          inkscape:cx="5.6923077"
          inkscape:cy="8"
          inkscape:window-x="5120"
          inkscape:window-y="0"
          inkscape:window-maximized="0"
          inkscape:current-layer="svg4"/>
  <path
          d="M 4,2 A 1,1 0 0 0 3,3 1,1 0 0 0 4,4 c 4.4,0 8,3.5699 8,8 a 1,1 0 0 0 1,1 1,1 0 0 0 1,-1 C 14,6.489 9.5,2 4,2 Z M 4,6 A 1,1 0 0 0 3,7 1,1 0 0 0 4,8 c 2.2,0 4,1.779 4,4 a 1,1 0 0 0 1,1 1,1 0 0 0 1,-1 C 10,8.6982 7.3,6 4,6 Z m 0,4 a 2,2 0 0 0 -2,2 2,2 0 0 0 2,2 2,2 0 0 0 2,-2 2,2 0 0 0 -2,-2 z"
          fill="#e0e0e0"
          id="path2"
          style="fill:#84ffb1;fill-opacity:1"/>
</svg>
