<?xml version="1.0" encoding="UTF-8" standalone="no"?>
<svg
   xmlns:dc="http://purl.org/dc/elements/1.1/"
   xmlns:cc="http://creativecommons.org/ns#"
   xmlns:rdf="http://www.w3.org/1999/02/22-rdf-syntax-ns#"
   xmlns:svg="http://www.w3.org/2000/svg"
   xmlns="http://www.w3.org/2000/svg"
   xmlns:xlink="http://www.w3.org/1999/xlink"
   xmlns:sodipodi="http://sodipodi.sourceforge.net/DTD/sodipodi-0.dtd"
   xmlns:inkscape="http://www.inkscape.org/namespaces/inkscape"
   height="1024"
   width="1024"
   version="1.1"
   id="svg18"
   sodipodi:docname="icon_color.svg.2021_04_19_17_17_34.0.svg"
   inkscape:label="GodotIcon"
   inkscape:version="1.0.2 (e86c870879, 2021-01-15, custom)">
  <metadata
     id="metadata24">
    <rdf:RDF>
      <cc:Work
         rdf:about="">
        <dc:format>image/svg+xml</dc:format>
        <dc:type
           rdf:resource="http://purl.org/dc/dcmitype/StillImage" />
        <dc:title />
      </cc:Work>
    </rdf:RDF>
  </metadata>
  <defs
     id="defs22">
    <linearGradient
       inkscape:collect="always"
       xlink:href="#SVGID_2_"
       id="linearGradient106"
       gradientUnits="userSpaceOnUse"
       gradientTransform="matrix(15.466667,0,0,-14.585417,48,966.58544)"
       x1="-10.1017"
       y1="5.8362002"
       x2="45.731499"
       y2="61.669399" />
    <linearGradient
       inkscape:collect="always"
       xlink:href="#SVGID_2_"
       id="linearGradient175"
       gradientUnits="userSpaceOnUse"
       gradientTransform="matrix(15.466667,0,0,-14.585415,47.999998,966.58536)"
       x1="-10.1017"
       y1="5.8362002"
       x2="45.731499"
       y2="61.669399" />
    <linearGradient
       inkscape:collect="always"
       xlink:href="#SVGID_1_"
       id="linearGradient249"
       gradientUnits="userSpaceOnUse"
       gradientTransform="matrix(15.466667,0,0,-14.585417,48,966.58544)"
       x1="4.2091999"
       y1="48.940899"
       x2="20.673401"
       y2="65.404999" />
    <linearGradient
       inkscape:collect="always"
       xlink:href="#XMLID_3_"
       id="linearGradient317"
       gradientUnits="userSpaceOnUse"
       gradientTransform="matrix(15.466667,0,0,-14.585417,48,966.58544)"
       x1="15.9594"
       y1="-13.0143"
       x2="44.306801"
       y2="15.3332" />
    <linearGradient
       inkscape:collect="always"
       xlink:href="#XMLID_3_"
       id="linearGradient387"
       gradientUnits="userSpaceOnUse"
       gradientTransform="matrix(15.466667,0,0,-14.585416,47.999999,966.5854)"
       x1="15.9594"
       y1="-13.0143"
       x2="44.306801"
       y2="15.3332" />
  </defs>
  <sodipodi:namedview
     pagecolor="#ffffff"
     bordercolor="#666666"
     borderopacity="1"
     objecttolerance="10"
     gridtolerance="10"
     guidetolerance="10"
     inkscape:pageopacity="0"
     inkscape:pageshadow="2"
     inkscape:window-width="2560"
     inkscape:window-height="1416"
     id="namedview20"
     showgrid="false"
     showborder="false"
     inkscape:document-rotation="0"
     inkscape:zoom="0.8125"
     inkscape:cx="272"
     inkscape:cy="512"
     inkscape:window-x="2560"
     inkscape:window-y="0"
     inkscape:window-maximized="0"
     inkscape:current-layer="svg18" />
  <g
     id="g599"
     inkscape:label="g599"
     transform="translate(-47.999915,-76.874472)">
    <g
       id="g431"
       inkscape:label="GodotIcon"
       transform="translate(8.1679061e-4,-1.18481e-4)">
      <path
         d="m 0,0 c 0,0 -0.325,1.994 -0.515,1.976 l -36.182,-3.491 c -2.879,-0.278 -5.115,-2.574 -5.317,-5.459 l -0.994,-14.247 -27.992,-1.997 -1.904,12.912 c -0.424,2.872 -2.932,5.037 -5.835,5.037 h -38.188 c -2.902,0 -5.41,-2.165 -5.834,-5.037 l -1.905,-12.912 -27.992,1.997 -0.994,14.247 c -0.202,2.886 -2.438,5.182 -5.317,5.46 l -36.2,3.49 c -0.187,0.018 -0.324,-1.978 -0.511,-1.978 l -0.049,-7.83 30.658,-4.944 1.004,-14.374 c 0.203,-2.91 2.551,-5.263 5.463,-5.472 l 38.551,-2.75 c 0.146,-0.01 0.29,-0.016 0.434,-0.016 2.897,0 5.401,2.166 5.825,5.038 l 1.959,13.286 h 28.005 l 1.959,-13.286 c 0.423,-2.871 2.93,-5.037 5.831,-5.037 0.142,0 0.284,0.005 0.423,0.015 l 38.556,2.75 c 2.911,0.209 5.26,2.562 5.463,5.472 l 1.003,14.374 30.645,4.966 z"
         fill="#ffffff"
         transform="matrix(4.162611,0,0,-4.162611,919.24059,673.15214)"
         id="path415" />
      <path
         d="m 0,0 v -47.514 -6.035 -5.492 c 0.108,-0.001 0.216,-0.005 0.323,-0.015 l 36.196,-3.49 c 1.896,-0.183 3.382,-1.709 3.514,-3.609 l 1.116,-15.978 31.574,-2.253 2.175,14.747 c 0.282,1.912 1.922,3.329 3.856,3.329 h 38.188 c 1.933,0 3.573,-1.417 3.855,-3.329 l 2.175,-14.747 31.575,2.253 1.115,15.978 c 0.133,1.9 1.618,3.425 3.514,3.609 l 36.182,3.49 c 0.107,0.01 0.214,0.014 0.322,0.015 v 4.711 l 0.015,0.005 V 0 c 5.09692,6.4164715 9.92323,13.494208 13.621,19.449 -5.651,9.62 -12.575,18.217 -19.976,26.182 -6.864,-3.455 -13.531,-7.369 -19.828,-11.534 -3.151,3.132 -6.7,5.694 -10.186,8.372 -3.425,2.751 -7.285,4.768 -10.946,7.118 1.09,8.117 1.629,16.108 1.846,24.448 -9.446,4.754 -19.519,7.906 -29.708,10.17 -4.068,-6.837 -7.788,-14.241 -11.028,-21.479 -3.842,0.642 -7.702,0.88 -11.567,0.926 v 0.006 c -0.027,0 -0.052,-0.006 -0.075,-0.006 -0.024,0 -0.049,0.006 -0.073,0.006 V 63.652 C 93.903,63.606 90.046,63.368 86.203,62.726 82.965,69.964 79.247,77.368 75.173,84.205 64.989,81.941 54.915,78.789 45.47,74.035 45.686,65.695 46.225,57.704 47.318,49.587 43.65,47.237 39.795,45.22 36.369,42.469 32.888,39.791 29.333,37.229 26.181,34.097 19.884,38.262 13.219,42.176 6.353,45.631 -1.048,37.666 -7.968,29.069 -13.621,19.449 -9.1783421,12.475308 -4.4130298,5.4661124 0,0 Z"
         fill="#478cbf"
         id="path417"
         transform="matrix(4.162611,0,0,-4.162611,104.69892,427.38725)" />
      <path
         d="m 0,0 -1.121,-16.063 c -0.135,-1.936 -1.675,-3.477 -3.611,-3.616 l -38.555,-2.751 c -0.094,-0.007 -0.188,-0.01 -0.281,-0.01 -1.916,0 -3.569,1.406 -3.852,3.33 l -2.211,14.994 H -81.09 l -2.211,-14.994 c -0.297,-2.018 -2.101,-3.469 -4.133,-3.32 l -38.555,2.751 c -1.936,0.139 -3.476,1.68 -3.611,3.616 L -130.721,0 -163.268,3.138 c 0.015,-3.498 0.06,-7.33 0.06,-8.093 0,-34.374 43.605,-50.896 97.781,-51.086 h 0.066 0.067 c 54.176,0.19 97.766,16.712 97.766,51.086 0,0.777 0.047,4.593 0.063,8.093 z"
         fill="#478cbf"
         transform="matrix(4.162611,0,0,-4.162611,784.07144,718.72312)"
         id="path419"
         inkscape:label="path6" />
      <path
         d="m 0,0 c 0,-12.052 -9.765,-21.815 -21.813,-21.815 -12.042,0 -21.81,9.763 -21.81,21.815 0,12.044 9.768,21.802 21.81,21.802 C -9.765,21.802 0,12.044 0,0"
         fill="#ffffff"
         transform="matrix(4.162611,0,0,-4.162611,389.21484,527.15132)"
         id="path421" />
      <path
         d="m 0,0 c 0,-7.994 -6.479,-14.473 -14.479,-14.473 -7.996,0 -14.479,6.479 -14.479,14.473 0,7.994 6.483,14.479 14.479,14.479 C -6.479,14.479 0,7.994 0,0"
         fill="#414042"
         transform="matrix(4.162611,0,0,-4.162611,367.36686,532.53707)"
         id="path423" />
      <path
         d="m 0,0 c -3.878,0 -7.021,2.858 -7.021,6.381 v 20.081 c 0,3.52 3.143,6.381 7.021,6.381 3.878,0 7.028,-2.861 7.028,-6.381 V 6.381 C 7.028,2.858 3.878,0 0,0"
         fill="#ffffff"
         transform="matrix(4.162611,0,0,-4.162611,511.99336,626.21982)"
         id="path425" />
      <path
         d="m 0,0 c 0,-12.052 9.765,-21.815 21.815,-21.815 12.041,0 21.808,9.763 21.808,21.815 0,12.044 -9.767,21.802 -21.808,21.802 C 9.765,21.802 0,12.044 0,0"
         fill="#ffffff"
         transform="matrix(4.162611,0,0,-4.162611,634.78706,527.15132)"
         id="path427" />
      <path
         d="m 0,0 c 0,-7.994 6.477,-14.473 14.471,-14.473 8.002,0 14.479,6.479 14.479,14.473 0,7.994 -6.477,14.479 -14.479,14.479 C 6.477,14.479 0,7.994 0,0"
         fill="#414042"
         transform="matrix(4.162611,0,0,-4.162611,656.64056,532.53707)"
         id="path429" />
    </g>
    <g
       id="g64"
       transform="matrix(15.466667,0,0,14.585417,48,76.875)"
       inkscape:label="FINAL">
      <path
         id="polygon285"
         style="fill:url(#linearGradient317);stroke-width:15.0196"
         d="m 446.52539,735.85547 -9.20312,62.41406 c -1.2363,8.40015 -8.7447,14.44054 -17.20313,13.82031 L 259.62891,800.63867 c -8.05882,-0.5786 -14.4693,-6.99392 -15.03125,-15.05273 l -1.24219,-17.81055 -89.44922,84.35156 c 68.82756,66.72009 202.94473,99.32794 357.81836,99.8711 H 512 h 0.2793 c 155.15104,-0.54413 289.44073,-33.26844 358.13867,-100.23047 l -89.6875,-85.14453 -1.32422,18.96289 c -0.56195,8.05881 -6.97244,14.47413 -15.03125,15.05273 l -160.49023,11.45117 c -0.39129,0.0291 -0.7828,0.041 -1.16993,0.041 -7.97556,0 -14.85518,-5.85247 -16.0332,-13.86133 l -9.20508,-62.41406 z"
         transform="matrix(0.06465517,0,0,0.06856163,-3.1034482,-5.2706755)" />
      <linearGradient
         id="XMLID_3_"
         gradientUnits="userSpaceOnUse"
         x1="15.9594"
         y1="-13.0143"
         x2="44.306801"
         y2="15.3332"
         gradientTransform="matrix(1,0,0,-1,0,61)">
        <stop
           offset="9.677000e-02"
           style="stop-color:#0095D5"
           id="stop26" />
        <stop
           offset="0.3007"
           style="stop-color:#238AD9"
           id="stop28" />
        <stop
           offset="0.6211"
           style="stop-color:#557BDE"
           id="stop30" />
        <stop
           offset="0.8643"
           style="stop-color:#7472E2"
           id="stop32" />
        <stop
           offset="1"
           style="stop-color:#806EE3"
           id="stop34" />
      </linearGradient>
      <linearGradient
         id="SVGID_1_"
         gradientUnits="userSpaceOnUse"
         x1="4.2091999"
         y1="48.940899"
         x2="20.673401"
         y2="65.404999"
         gradientTransform="matrix(1,0,0,-1,0,61)">
        <stop
           offset="0.1183"
           style="stop-color:#0095D5"
           id="stop38" />
        <stop
           offset="0.4178"
           style="stop-color:#3C83DC"
           id="stop40" />
        <stop
           offset="0.6962"
           style="stop-color:#6D74E1"
           id="stop42" />
        <stop
           offset="0.8333"
           style="stop-color:#806EE3"
           id="stop44" />
      </linearGradient>
      <linearGradient
         id="SVGID_2_"
         gradientUnits="userSpaceOnUse"
         x1="-10.1017"
         y1="5.8362002"
         x2="45.731499"
         y2="61.669399"
         gradientTransform="matrix(1,0,0,-1,0,61)">
        <stop
           offset="0.1075"
           style="stop-color:#C757BC"
           id="stop49" />
        <stop
           offset="0.2138"
           style="stop-color:#D0609A"
           id="stop51" />
        <stop
           offset="0.4254"
           style="stop-color:#E1725C"
           id="stop53" />
        <stop
           offset="0.6048"
           style="stop-color:#EE7E2F"
           id="stop55" />
        <stop
           offset="0.743"
           style="stop-color:#F58613"
           id="stop57" />
        <stop
           offset="0.8232"
           style="stop-color:#F88909"
           id="stop59" />
      </linearGradient>
      <path
         id="polygon62"
         style="fill:url(#linearGradient106);stroke-width:15.0196"
         d="m 104.45117,705.66016 c 0.0624,14.56081 0.24805,30.51338 0.24805,33.68945 0,44.82019 17.81188,82.34735 49.20508,112.7793 l 89.45117,-84.35352 -3.42383,-49.05273 z"
         transform="matrix(0.06465517,0,0,0.06856163,-3.1034482,-5.2706755)" />
      <path
         id="polygon355"
         style="fill:url(#linearGradient387);stroke-width:15.0196"
         d="m 541.24805,539.27539 v 60.38086 c 0,14.66488 -13.1113,26.5625 -29.25391,26.5625 -16.1426,0 -29.22656,-11.89762 -29.22656,-26.5625 v -57.65234 l -208.89453,196.99414 2.11328,30.27539 131.42969,9.3789 9.05468,-61.38672 c 1.17386,-7.9589 8.00029,-13.85742 16.05078,-13.85742 h 158.9629 c 8.04631,0 14.87301,5.89852 16.04687,13.85742 l 9.05273,61.38672 131.4336,-9.3789 2.20703,-31.60938 z"
         transform="matrix(0.06465517,0,0,0.06856163,-3.1034482,-5.2706755)" />
      <path
         id="polygon167"
         style="fill:url(#linearGradient175);stroke-width:15.0196"
         d="m 606.36914,76.875 c -16.9335,28.45977 -32.41744,59.27922 -45.9043,89.4082 -15.99275,-2.67239 -32.0619,-3.66399 -48.15039,-3.85547 v -0.0254 c -0.11239,0 -0.2148,0.0254 -0.31054,0.0254 -0.0999,0 -0.20479,-0.0254 -0.30469,-0.0254 v 0.0254 c -16.11763,0.19148 -32.17301,1.18308 -48.16992,3.85547 -4.03616,-9.02215 -8.27171,-18.10382 -12.65235,-27.16797 L 104.69922,482.92188 v 142.24804 25.1211 22.86132 c 0.44956,0.004 0.9003,0.0209 1.3457,0.0625 l 150.66992,14.52735 c 7.89231,0.76176 14.07749,7.11252 14.62696,15.02148 l 2.52929,36.23438 209.51368,-197.57617 V 516.0918 c 0,-14.65239 13.082,-26.56055 29.22461,-26.56055 7.25928,0 13.90079,2.4133 19.01757,6.39648 l 249.47071,-235.2539 c -4.38508,-3.36332 -8.79534,-6.69573 -13.18555,-10.06836 -14.25694,-11.45134 -30.32513,-19.84872 -45.56445,-29.63086 4.53724,-33.78791 6.7803,-67.0514 7.68359,-101.76758 C 690.71123,99.417983 648.78198,86.299151 606.36914,76.875 Z M 299.03125,436.42188 c 50.15114,0 90.80078,40.61941 90.80078,90.7539 0,50.16779 -40.64964,90.80664 -90.80078,90.80664 -50.12616,0 -90.78516,-40.63885 -90.78516,-90.80664 0,-50.13449 40.659,-90.75391 90.78516,-90.7539 z"
         transform="matrix(0.06465517,0,0,0.06856163,-3.1034482,-5.2706755)" />
      <path
         id="polygon227"
         style="fill:url(#linearGradient249);stroke-width:15.0196"
         d="m 417,76.898438 c -42.39203,9.424151 -84.32672,22.544931 -123.64258,42.333982 0.89913,34.71618 3.14363,67.97967 7.69336,101.76758 -15.26846,9.78214 -31.31507,18.17756 -45.57617,29.62891 -14.49005,11.14747 -29.28961,21.81231 -42.41016,34.84961 C 186.85249,268.14124 159.10978,251.84862 130.5293,237.4668 99.986551,270.33708 71.418653,305.79997 48,345.42773 v 1.98243 c 18.318567,28.71196 37.916271,57.49887 56.08398,80.00195 v 66.38281 L 450.9668,140.5957 C 440.52636,118.90054 429.15227,97.292421 417,76.898438 Z"
         transform="matrix(0.06465517,0,0,0.06856163,-3.1034482,-5.2706755)" />
    </g>
  </g>
</svg>
